<svg viewBox="0 0 894 127" xmlns="http://www.w3.org/2000/svg">
    <symbol id="s4d-logo" viewBox="0 0 894 127" fill-rule="evenodd">
        <path d="M100.999 56.301c-20.418-12.119-54.095-13.233-73.586-7.32a5.924 5.924 0 0 1-7.388-3.946 5.923 5.923 0 0 1 3.949-7.386c22.374-6.788 59.567-5.477 83.072 8.468a5.918 5.918 0 0 1 2.07 8.114 5.924 5.924 0 0 1-8.117 2.07Zm-.669 17.95a4.942 4.942 0 0 1-6.792 1.625C76.516 65.418 50.56 62.389 30.422 68.498a4.946 4.946 0 0 1-6.163-3.288 4.942 4.942 0 0 1 3.292-6.156c23.006-6.976 51.604-3.597 71.154 8.411 2.322 1.429 3.052 4.468 1.625 6.785Zm-7.75 17.237a3.946 3.946 0 0 1-5.428 1.313c-14.875-9.085-33.596-11.138-55.644-6.104a3.946 3.946 0 0 1-4.727-2.967 3.94 3.94 0 0 1 2.97-4.724c24.127-5.513 44.824-3.14 61.52 7.056a3.944 3.944 0 0 1 1.309 5.426ZM63.532.18C28.55.18.19 28.521.19 63.484c0 34.965 28.359 63.307 63.34 63.307 34.983 0 63.34-28.342 63.34-63.307C126.872 28.521 98.515.18 63.532.18ZM172.518 58.621c-10.936-2.606-12.884-4.436-12.884-8.28 0-3.631 3.422-6.075 8.51-6.075 4.93 0 9.82 1.856 14.947 5.677.155.115.35.162.541.131a.705.705 0 0 0 .473-.292l5.34-7.523a.717.717 0 0 0-.136-.973c-6.102-4.894-12.973-7.273-21.004-7.273-11.808 0-20.056 7.083-20.056 17.216 0 10.867 7.115 14.715 19.41 17.685 10.465 2.41 12.232 4.427 12.232 8.036 0 3.998-3.572 6.484-9.32 6.484-6.383 0-11.59-2.15-17.415-7.19a.754.754 0 0 0-.526-.172.71.71 0 0 0-.49.253l-5.988 7.122a.71.71 0 0 0 .07.992c6.778 6.047 15.113 9.242 24.107 9.242 12.725 0 20.947-6.95 20.947-17.705 0-9.09-5.434-14.116-18.758-17.355M229.3 70.803c0 7.675-4.73 13.031-11.503 13.031-6.696 0-11.747-5.599-11.747-13.03 0-7.432 5.051-13.032 11.747-13.032 6.664 0 11.504 5.48 11.504 13.031Zm-9.236-22.962c-5.515 0-10.04 2.171-13.77 6.62v-5.007a.717.717 0 0 0-.716-.718h-9.792a.717.717 0 0 0-.715.718v55.64c0 .395.32.717.715.717h9.792a.717.717 0 0 0 .716-.718V87.531c3.732 4.185 8.256 6.229 13.77 6.229 10.248 0 20.622-7.885 20.622-22.957 0-15.075-10.374-22.962-20.622-22.962ZM267.278 83.914c-7.02 0-12.312-5.637-12.312-13.11 0-7.506 5.11-12.953 12.15-12.953 7.066 0 12.394 5.637 12.394 13.116 0 7.505-5.144 12.947-12.232 12.947Zm0-36.073c-13.197 0-23.537 10.157-23.537 23.126 0 12.828 10.269 22.878 23.376 22.878 13.244 0 23.616-10.123 23.616-23.042 0-12.876-10.3-22.962-23.455-22.962ZM318.916 48.736H308.14V37.725a.715.715 0 0 0-.714-.717h-9.792a.718.718 0 0 0-.718.717v11.011h-4.709a.715.715 0 0 0-.713.718v8.411c0 .395.319.717.713.717h4.709v21.765c0 8.796 4.38 13.255 13.018 13.255 3.513 0 6.427-.725 9.174-2.281a.714.714 0 0 0 .362-.621v-8.01a.72.72 0 0 0-1.038-.643c-1.886.949-3.71 1.387-5.748 1.387-3.141 0-4.544-1.425-4.544-4.62V58.581h10.776a.715.715 0 0 0 .714-.717v-8.411a.715.715 0 0 0-.714-.718M356.46 48.78v-1.353c0-3.979 1.526-5.753 4.95-5.753 2.04 0 3.68.405 5.517 1.018a.716.716 0 0 0 .942-.682v-8.248a.717.717 0 0 0-.506-.687c-1.94-.576-4.423-1.169-8.14-1.169-9.045 0-13.825 5.091-13.825 14.717v2.07h-4.705a.72.72 0 0 0-.718.718v8.454a.72.72 0 0 0 .718.717h4.705v33.572c0 .395.32.716.714.716h9.792a.718.718 0 0 0 .718-.716V58.582h9.143l14.005 33.563c-1.59 3.526-3.153 4.228-5.288 4.228-1.725 0-3.542-.515-5.4-1.531a.735.735 0 0 0-.57-.054.725.725 0 0 0-.423.387l-3.319 7.278a.711.711 0 0 0 .308.926c3.465 1.875 6.593 2.676 10.458 2.676 7.23 0 11.228-3.367 14.751-12.423l16.99-43.876a.716.716 0 0 0-.665-.977h-10.195a.72.72 0 0 0-.678.481l-10.444 29.813-11.438-29.833a.713.713 0 0 0-.669-.46H356.46M334.695 48.736h-9.793a.718.718 0 0 0-.717.718v42.7c0 .395.321.716.717.716h9.793a.718.718 0 0 0 .717-.716v-42.7a.719.719 0 0 0-.717-.718M329.848 29.294c-3.879 0-7.027 3.14-7.027 7.017a7.025 7.025 0 0 0 7.027 7.02 7.019 7.019 0 1 0 0-14.038M408.921 84.462h-1.794v2.287h1.794c.896 0 1.43-.438 1.43-1.145 0-.744-.534-1.142-1.43-1.142Zm1.163 3.262 1.95 2.727h-1.644l-1.755-2.501h-1.508v2.501h-1.376v-7.229h3.226c1.68 0 2.786.859 2.786 2.306 0 1.185-.685 1.91-1.679 2.196Zm-1.527-6.908c-3.53 0-6.202 2.804-6.202 6.239 0 3.432 2.653 6.2 6.165 6.2 3.53 0 6.203-2.804 6.203-6.24 0-3.432-2.654-6.2-6.166-6.2Zm-.037 13.127a6.862 6.862 0 0 1-6.89-6.888c0-3.779 3.054-6.924 6.927-6.924a6.862 6.862 0 0 1 6.89 6.884c0 3.778-3.052 6.928-6.927 6.928Z" />
        <path d="M448.11 53.62h-10.866v38.504h-5.788V53.619H423v-5.06h8.456v-7.032c0-8.871 5.35-13.527 12.254-13.527 2.157 0 3.71.44 4.66.878v4.744c-.777-.352-2.034-.637-3.846-.637-4.142 0-7.28 2.414-7.28 9.09v6.484h10.866v5.06Zm20.805 39.538c-11.954 0-21.301-9.21-21.301-22.664 0-13.544 9.257-22.664 21.3-22.664 11.954 0 21.302 9.12 21.302 22.664 0 13.454-9.348 22.664-21.301 22.664Zm-15.819-22.664c0 11.197 7.37 17.788 15.819 17.788 8.448 0 15.818-6.591 15.818-17.788 0-11.287-7.37-17.788-15.818-17.788-8.449 0-15.819 6.501-15.819 17.788Zm63.794-21.671c-.719-.27-1.887-.451-3.325-.451-5.663 0-10.606 2.618-13.212 8.578v-8.037h-5.303v43.072h5.393V68.598c0-9.842 5.392-14.538 12.672-14.538 1.438 0 2.786.18 3.775.452v-5.689Zm17.785 38.843h12.464c11.897 0 22.338-7.881 22.338-23.643 0-15.841-10.279-23.881-22.176-23.881h-12.626v47.524Zm12.626 4.458h-17.725v-56.44h17.887c14.568 0 27.274 9.791 27.274 28.34 0 18.467-12.868 28.1-27.436 28.1Zm35.985-25.1h28.394c-.179-8.02-5.268-14.328-14.197-14.328-7.947 0-13.661 6.398-14.197 14.329Zm29.019 11.085 4.732 1.712c-2.41 7.3-8.84 13.337-18.661 13.337-11.25 0-20.715-8.38-20.715-22.8 0-13.517 9.107-22.528 19.733-22.528 12.59 0 19.822 9.011 19.911 21.718 0 .72 0 1.262-.09 1.982h-34.107v.36c.089 9.914 6.875 16.402 15.268 16.402 7.679 0 12.143-4.506 13.929-10.183Zm44.35-29.108h-5.982l-13.75 36.858-13.572-36.858h-6.072l16.876 42.986h5.625L656.655 49Zm4.357 18.024h28.394c-.179-8.02-5.268-14.329-14.197-14.329-7.947 0-13.662 6.398-14.197 14.329Zm29.019 11.084 4.732 1.712c-2.41 7.3-8.84 13.337-18.661 13.337-11.25 0-20.715-8.38-20.715-22.8 0-13.517 9.107-22.528 19.732-22.528 12.59 0 19.823 9.011 19.912 21.718 0 .72 0 1.262-.09 1.982h-34.108v.36c.09 9.914 6.875 16.402 15.269 16.402 7.678 0 12.143-4.506 13.929-10.183Zm13.701 14.015V34.649h-4.856v57.475h4.856Zm24.745.135c-11.867 0-21.147-9.071-21.147-22.322 0-13.34 9.19-22.322 21.147-22.322 11.868 0 21.148 8.982 21.148 22.322 0 13.25-9.28 22.322-21.148 22.322Zm-15.704-22.322c0 11.028 7.317 17.52 15.704 17.52 8.388 0 15.705-6.492 15.705-17.52 0-11.116-7.317-17.52-15.705-17.52-8.387 0-15.704 6.404-15.704 17.52ZM758.423 108h-5.355V48.682h5.265v8.449c2.052-4.358 7.049-9.605 15.526-9.605 12.046 0 19.273 9.783 19.273 22.322 0 12.628-7.495 22.411-19.452 22.411-8.209 0-13.116-4.891-15.258-9.16V108Zm29.356-38.152c0-9.96-5.89-17.52-14.813-17.52-8.833 0-14.633 7.649-14.633 17.52 0 10.05 5.8 17.609 14.633 17.609 8.923 0 14.813-7.649 14.813-17.609Zm13.83-3.38h28.374c-.178-7.914-5.265-14.14-14.187-14.14-7.942 0-13.653 6.315-14.188 14.14Zm28.999 10.94 4.729 1.689c-2.41 7.204-8.834 13.162-18.65 13.162-11.242 0-20.7-8.27-20.7-22.5 0-13.34 9.101-22.233 19.72-22.233 12.58 0 19.808 8.893 19.897 21.433 0 .711 0 1.245-.089 1.956H801.43v.356c.089 9.783 6.87 16.186 15.258 16.186 7.674 0 12.135-4.447 13.92-10.05Zm30.61-28.815v5.603c-.981-.267-2.32-.445-3.747-.445-7.228 0-12.582 4.625-12.582 14.318v23.034h-5.353v-42.42h5.264v7.914c2.588-5.87 7.496-8.448 13.117-8.448 1.428 0 2.588.178 3.301.444Zm1.463 31.393 4.907-1.69c.803 5.159 4.73 9.339 11.69 9.339 5.264 0 9.457-3.113 9.457-7.56 0-3.913-2.676-6.047-7.227-7.114l-6.87-1.601c-6.247-1.423-10.44-5.158-10.44-11.294 0-6.848 6.602-12.45 14.365-12.45 9.905 0 14.099 5.869 15.259 10.938l-4.73 1.778c-.803-4.09-3.747-8.092-10.529-8.092-4.818 0-9.101 3.023-9.101 7.47 0 3.646 2.32 5.78 6.692 6.759l6.782 1.512C889.985 69.58 894 73.583 894 79.72c0 6.314-5.354 12.539-14.812 12.539-10.44 0-15.704-6.67-16.507-12.273Z" />
    </symbol>
    <use href="#s4d-logo" />
</svg>
